# xmcd
#
# Track frame offsets:
#	150
#	14850
#	33600
#	51000
#	63675
#	79350
#	99000
#	117375
#	131625
#	146325
#	162675
#	182025
#	199725
#	214875
#
# Disc length: 3165 seconds
#
# Revision: 0
# Processed by: cddbd v1.5.2PL0 Copyright (c) Steve Scherf et al.
# Submitted via: dBpowerAMP V4.0
#
DISCID=d50c5b0e
DTITLE=Doug Warner - Fading Gracefully
DYEAR=2009
DGENRE=Blues
TTITLE0=01 - The Hammer
TTITLE1=02 - Long Long Drive
TTITLE2=03 - Finally Found Out
TTITLE3=04 - Mama Does The Rhumba
TTITLE4=05 - Whirlyfair Blues
TTITLE5=06 - Time To Get It Right
TTITLE6=07 - On My Own
TTITLE7=08 - These Old Rhythm And Blues
TTITLE8=09 - Don't Nail Me To The Cross
TTITLE9=10 - Union Street Jamboree
TTITLE10=11 - Blue River Blues
TTITLE11=12 - Can't Take No More
TTITLE12=13 - Big Operaror
TTITLE13=14 - Fading Gracefully
EXTD=Bob Jackson Miner
EXTT0=
EXTT1=
EXTT2=
EXTT3=
EXTT4=
EXTT5=
EXTT6=
EXTT7=
EXTT8=
EXTT9=
EXTT10=
EXTT11=
EXTT12=
EXTT13=
PLAYORDER=
